<?xml version="1.0" encoding="utf-8"?>
<!-- Svg Vector Icons : http://www.onlinewebfonts.com/icon -->
<!DOCTYPE svg PUBLIC "-//W3C//DTD SVG 1.1//EN" "http://www.w3.org/Graphics/SVG/1.1/DTD/svg11.dtd">
<svg fill="black" width="100px" version="1.1" xmlns="http://www.w3.org/2000/svg" xmlns:xlink="http://www.w3.org/1999/xlink" x="0px" y="0px" viewBox="0 0 1000 1000" enable-background="new 0 0 1000 1000" xml:space="preserve">
<metadata> Svg Vector Icons : http://www.onlinewebfonts.com/icon </metadata>
<g><path d="M632.5,874.5c-46.5,0-90.2-18.1-123.1-51c-67.9-67.9-67.9-178.3,0-246.1c32.9-32.9,76.6-51,123.1-51c46.5,0,90.2,18.1,123.1,51c32.9,32.9,51,76.6,51,123.1c0,46.5-18.1,90.2-51,123.1C722.6,856.4,678.9,874.5,632.5,874.5z M632.5,574.5c-33.6,0-65.3,13.1-89.1,36.9c-49.1,49.1-49.1,129,0,178.1c23.8,23.8,55.4,36.9,89.1,36.9c33.6,0,65.3-13.1,89.1-36.9c23.8-23.8,36.9-55.4,36.9-89.1c0-33.6-13.1-65.3-36.9-89.1C697.7,587.6,666.1,574.5,632.5,574.5z"/><path d="M860.8,952.9c-6.2,0-12.3-2.3-17-7L721.5,823.6c-9.4-9.4-9.4-24.6,0-34c9.4-9.4,24.6-9.4,34,0l122.3,122.3c9.4,9.4,9.4,24.6,0,34C873.1,950.5,867,952.9,860.8,952.9z"/><path d="M650.7,264.9H236c-13.3,0-24-10.8-24-24c0-13.3,10.8-24,24-24h414.7c13.3,0,24,10.8,24,24C674.8,254.2,664,264.9,650.7,264.9z"/><path d="M598.6,402.4H236c-13.3,0-24-10.8-24-24c0-13.3,10.8-24,24-24h362.6c13.3,0,24,10.8,24,24C622.7,391.7,611.9,402.4,598.6,402.4z"/><path d="M483.4,536.7H236c-13.3,0-24-10.8-24-24c0-13.3,10.8-24,24-24h247.4c13.3,0,24,10.8,24,24C507.5,525.9,496.7,536.7,483.4,536.7z"/><path d="M709,990H167.3c-40.2,0-72.9-32.7-72.9-72.9V82.8c0-40.2,32.7-72.8,72.9-72.8h665.4c40.2,0,72.9,32.7,72.9,72.8v707.5c0,13.3-10.8,24-24,24c-13.3,0-24-10.8-24-24V82.8c0-13.6-11.1-24.8-24.8-24.8H167.3c-13.7,0-24.8,11.1-24.8,24.8v834.3c0,13.7,11.1,24.8,24.8,24.8H709c13.3,0,24,10.8,24,24C733,979.2,722.2,990,709,990z"/></g>
</svg>